<svg width="244" height="84" viewBox="0 0 244 84" fill="none" xmlns="http://www.w3.org/2000/svg">
<path d="M92.0985 59.5931V9.12451C87.3926 8.85376 83.4654 9.73638 79.038 11.0412C75.5697 12.0615 72.1902 13.5545 69.4303 15.9362C66.6704 18.3179 64.4383 21.3344 61.6907 23.7742C61.1262 24.2744 60.5188 24.7303 59.9803 25.255C59.4725 25.7584 58.8968 26.1884 58.2699 26.5322C56.9863 27.2145 55.7425 27.8646 54.2738 27.9089C52.0324 27.9846 49.7972 28.1884 47.5791 28.5193C43.0724 29.1479 38.6137 30.0827 34.234 31.3171C34.0308 31.3577 33.8413 31.4493 33.6832 31.5832C33.549 31.744 33.4574 31.936 33.417 32.1416C32.3935 35.7577 31.2874 39.3081 30.6954 43.0252C30.6418 43.3617 30.5041 43.7136 30.2073 43.8803C30.0187 43.9681 29.8127 44.0126 29.6046 44.0103C28.2277 44.0929 26.8615 44.0363 25.4907 44.1633C21.3388 44.5238 17.2394 45.3415 13.267 46.6016C10.6736 47.4218 8.16359 48.4856 5.77062 49.7787C4.83662 50.2706 3.94159 50.8331 3.09333 51.4614C3.08867 51.4644 3.08496 51.4686 3.08263 51.4736C2.97553 51.7321 0.263063 58.3143 0.012163 67.6025C-0.243326 77.0865 3.59972 75.2861 4.62321 75.5568C4.6923 75.5743 4.76227 75.5881 4.8328 75.5981C4.77874 75.0665 4.75168 74.5325 4.75172 73.9981C4.75077 71.8765 5.18198 69.777 6.01905 67.8275C6.85611 65.8779 8.0815 64.1193 9.62051 62.6588C11.1595 61.1982 12.9799 60.0664 14.9707 59.3322C16.9614 58.5981 19.0809 58.277 21.1998 58.3886C23.3187 58.5002 25.3927 59.0422 27.2954 59.9813C29.198 60.9205 30.8894 62.2373 32.2664 63.8514C33.6434 65.4656 34.6773 67.3432 35.3049 69.3698C35.9325 71.3965 36.1407 73.5297 35.9168 75.6394L82.6209 75.6685C82.5612 75.1137 82.5316 74.5561 82.5322 73.9981C82.5325 70.9223 83.4403 67.915 85.142 65.3526C86.8436 62.7903 89.2635 60.7868 92.0985 59.5931V59.5931Z" fill="#0A0A0A"/>
<path d="M20.3779 64.1363C18.4258 64.1351 16.5172 64.7128 14.8935 65.7964C13.2699 66.88 12.0042 68.4208 11.2565 70.2238C10.5088 72.0268 10.3128 74.0111 10.6933 75.9255C11.0737 77.8399 12.0135 79.5985 13.3937 80.9788C14.7739 82.359 16.5326 83.299 18.4472 83.6797C20.3619 84.0603 22.3464 83.8646 24.1497 83.1173C25.9531 82.3701 27.4943 81.1047 28.5783 79.4815C29.6623 77.8582 30.2404 75.95 30.2395 73.9981C30.2391 71.383 29.2 68.8751 27.3507 67.0257C25.5015 65.1764 22.9934 64.1371 20.3779 64.1363V64.1363Z" fill="#0A0A0A"/>
<path d="M98.1568 64.1363C96.2061 64.1363 94.2992 64.7147 92.6772 65.7983C91.0552 66.882 89.791 68.4222 89.0445 70.2242C88.298 72.0262 88.1027 74.0091 88.4832 75.9221C88.8638 77.8351 89.8032 79.5923 91.1825 80.9715C92.5619 82.3507 94.3194 83.2899 96.2326 83.6705C98.1459 84.051 100.129 83.8557 101.931 83.1093C103.734 82.3629 105.274 81.0988 106.358 79.4771C107.441 77.8553 108.02 75.9486 108.02 73.9981C108.027 72.7012 107.776 71.4158 107.283 70.2163C106.789 69.0168 106.063 67.9269 105.146 67.0098C104.229 66.0928 103.139 65.3666 101.939 64.8734C100.74 64.3801 99.4539 64.1296 98.1568 64.1363V64.1363Z" fill="#0A0A0A"/>
<path d="M123.518 64.1363C121.116 64.1347 118.796 65.0094 116.993 66.5964C115.19 68.1834 114.029 70.3736 113.726 72.756C113.622 73.5788 113.622 74.4114 113.726 75.2341C113.726 75.2341 113.726 75.2341 113.726 75.2341C113.965 77.1163 114.742 78.8897 115.963 80.3416C117.185 81.7936 118.799 82.8624 120.613 83.4199C122.426 83.9775 124.363 84.0001 126.189 83.485C128.015 82.9699 129.654 81.939 130.909 80.516C132.164 79.0929 132.982 77.3381 133.264 75.462C133.547 73.5859 133.282 71.6681 132.502 69.9386C131.722 68.2091 130.459 66.7414 128.866 65.7114C127.272 64.6815 125.415 64.133 123.518 64.1317V64.1363Z" fill="#0A0A0A"/>
<path d="M199.598 83.8584C205.045 83.8584 209.46 79.4438 209.46 73.9981C209.46 68.5524 205.045 64.1378 199.598 64.1378C194.152 64.1378 189.737 68.5524 189.737 73.9981C189.737 79.4438 194.152 83.8584 199.598 83.8584Z" fill="#0A0A0A"/>
<path d="M224.06 83.8584C229.506 83.8584 233.921 79.4438 233.921 73.9981C233.921 68.5524 229.506 64.1378 224.06 64.1378C218.613 64.1378 214.198 68.5524 214.198 73.9981C214.198 79.4438 218.613 83.8584 224.06 83.8584Z" fill="#0A0A0A"/>
<path d="M122.716 14.6574C122.236 14.3769 121.33 14.2372 120 14.2382V45.0153C121.754 45.0153 122.833 44.6635 123.238 43.9598C123.643 43.2562 123.847 41.3441 123.85 38.2236V20.0464C123.85 17.9273 123.782 16.5689 123.648 15.9714C123.596 15.6982 123.486 15.4395 123.325 15.2127C123.164 14.986 122.957 14.7965 122.716 14.6574V14.6574Z" fill="#FF2B2B"/>
<path d="M239.716 0H102.44C101.305 0.00322891 100.218 0.455525 99.415 1.25806C98.6124 2.0606 98.16 3.14814 98.1568 4.28309V54.9689C98.1572 55.1223 98.1659 55.2755 98.1828 55.4278C98.2989 56.4768 98.7971 57.4464 99.5823 58.1517C100.368 58.857 101.385 59.2487 102.44 59.252H239.716C240.851 59.2488 241.939 58.7965 242.742 57.994C243.544 57.1914 243.997 56.1039 244 54.9689V4.28309C243.997 3.14814 243.544 2.0606 242.742 1.25806C241.939 0.455525 240.851 0.00322891 239.716 0ZM136.006 39.12C136.006 43.3204 135.808 46.1284 135.412 47.5439C135.017 48.9593 134.33 50.0694 133.352 50.874C132.368 51.6735 131.154 52.2344 129.709 52.5566C128.264 52.8789 126.087 53.0319 123.178 53.0155H107.83V6.23343H116.935C122.81 6.23343 126.784 6.50317 128.857 7.04264C130.929 7.5821 132.505 8.4683 133.583 9.70122C134.625 10.86 135.326 12.2856 135.605 13.8191C135.872 15.3325 136.006 18.3021 136.006 22.7279V39.12ZM184.062 42.0263C184.062 45.1877 183.701 47.5296 182.979 49.0522C182.648 49.7815 182.17 50.435 181.576 50.9723C180.982 51.5096 180.284 51.9192 179.525 52.1757C177.948 52.7356 174.712 53.0155 169.816 53.0155H155.741V6.23343H167.881C171.715 6.23343 174.622 6.53173 176.601 7.1283C178.581 7.72487 180.176 8.93281 181.385 10.7521C182.598 12.5724 183.205 15.5038 183.206 19.5462C183.206 22.2803 182.777 24.1862 181.921 25.2641C181.064 26.3421 179.373 27.1701 176.848 27.7483C179.66 28.3847 181.568 29.4402 182.571 30.9148C183.573 32.3894 184.074 34.6492 184.073 37.6943L184.062 42.0263ZM232.56 26.6011H220.391V18.4754C220.391 16.1106 220.261 14.6349 220.001 14.0486C219.741 13.4622 219.168 13.169 218.281 13.169C217.279 13.169 216.643 13.5259 216.373 14.2398C216.104 14.9536 215.97 16.495 215.97 18.864V40.593C215.97 42.8682 216.104 44.352 216.373 45.0444C216.643 45.7368 217.25 46.0836 218.194 46.0846C219.1 46.0846 219.692 45.7368 219.972 45.0413C220.251 44.3458 220.391 42.7142 220.391 40.1464V34.2648H232.56V36.0881C232.56 40.9311 232.217 44.3652 231.533 46.3905C230.849 48.4158 229.336 50.1912 226.995 51.7168C224.65 53.2404 221.764 54.0022 218.339 54.0022C214.77 54.0022 211.831 53.3567 209.524 52.0656C207.217 50.7746 205.687 48.9899 204.935 46.7117C204.183 44.4284 203.807 40.9943 203.807 36.4094V22.7279C203.807 19.3565 203.923 16.828 204.154 15.1423C204.386 13.4566 205.075 11.8336 206.221 10.2733C207.367 8.71304 208.956 7.48471 210.99 6.58832C213.024 5.69193 215.36 5.24425 217.998 5.24527C221.582 5.24527 224.54 5.93769 226.871 7.32256C229.203 8.70743 230.733 10.4344 231.461 12.5036C232.192 14.5717 232.559 17.7891 232.56 22.1558V26.6011Z" fill="#FF2B2B"/>
<path d="M170.439 14.4983C170.006 14.3443 169.164 14.2576 167.91 14.2383V24.6401C168.43 24.6217 168.828 24.611 169.125 24.611C170.319 24.611 171.08 24.3173 171.407 23.7299C171.735 23.1425 171.899 21.4599 171.9 18.682C171.9 17.2175 171.765 16.1916 171.495 15.6043C171.224 15.023 170.873 14.6528 170.439 14.4983Z" fill="#FF2B2B"/>
<path d="M167.91 31.9243V45.0153C169.626 44.9572 170.719 44.6875 171.192 44.2061C171.664 43.7248 171.9 42.5398 171.9 40.6512V36.287C171.9 34.2841 171.688 33.0706 171.264 32.6464C170.839 32.2221 169.721 31.9815 167.91 31.9243Z" fill="#FF2B2B"/>
</svg>
